<svg width="378" height="376" viewBox="0 0 378 376" fill="none" xmlns="http://www.w3.org/2000/svg">
<path fill-rule="evenodd" clip-rule="evenodd" d="M378 0.488281H0V375.512H378V0.488281ZM334.5 370.501L359 344.216L311.485 293.184V206.601H346.757V169.429H311.485V82.7789L358.988 31.7873L334.513 5.50145L294.171 48.8069L253.829 5.50145L229.342 31.7873L276.857 82.7921V256.026L213.487 187.989L253.829 144.683L229.342 118.398L189 161.703L148.658 118.398L124.171 144.683L164.513 187.989L101.143 256.013V82.7921L148.658 31.7873L124.171 5.50145L83.8289 48.8069L43.4869 5.50145L19 31.7873L66.5147 82.7921V169.429H31.2435V206.601H66.5147V293.184L19 344.216L43.4869 370.501L83.8289 327.17L124.171 370.475L148.658 344.189L108.316 300.884L189 214.274L269.684 300.884L229.342 344.189L253.829 370.475L294.159 327.17L334.5 370.501ZM190.689 56.2964C203.588 56.2964 214.044 66.8207 214.044 79.8032C214.044 92.7858 203.588 103.31 190.689 103.31C177.789 103.31 167.333 92.7858 167.333 79.8032C167.333 66.8207 177.789 56.2964 190.689 56.2964Z" fill="#131515"/>
</svg>
